<?xml version="1.0" encoding="utf-8"?>
<!-- Generator: Adobe Illustrator 23.0.5, SVG Export Plug-In . SVG Version: 6.00 Build 0)  -->
<svg version="1.1" id="Layer_1" xmlns="http://www.w3.org/2000/svg" xmlns:xlink="http://www.w3.org/1999/xlink" x="0px" y="0px"
	 viewBox="0 0 595.28 841.89" style="enable-background:new 0 0 595.28 841.89;" xml:space="preserve">
<style type="text/css">
	.st0{fill:none;stroke:#044959;stroke-miterlimit:10;}
	.st1{fill:none;stroke:#CCCCCB;stroke-miterlimit:10;}
	.st2{fill:#044959;}
</style>
<path class="st0" d="M291.89,218.04c-2.04,1.07-3.55,1.84-4.54,2.34c-1.09,0.55-1.78,0.91-2.35,1.73c-0.47,0.67-0.89,1.75-0.78,2.52
	h-5.36v-2.41c0.02,0,0.03,0.01,0.05,0.01c1,0,1.82-1.16,1.82-2.59c0-1.43-0.81-2.59-1.82-2.59c-0.02,0-0.03,0.01-0.05,0.01v-2.03h0
	v-9.69c0.02-0.28,0.05-0.56,0.05-0.85c-0.05-5.04-2.96-9.08-6.49-9c-3.53,0.07-6.36,4.22-6.3,9.26c0,0.22,0.04,0.42,0.05,0.64v11.67
	c-0.02,0-0.03-0.01-0.05-0.01c-1,0-1.82,1.16-1.82,2.59c0,1.43,0.81,2.59,1.82,2.59c0.02,0,0.03-0.01,0.05-0.01v4.76h-9.14
	c0.11-0.78-0.31-1.85-0.78-2.52c-0.57-0.82-1.26-1.18-2.35-1.73c-0.99-0.5-2.5-1.26-4.54-2.34c-0.09,0.47-0.58,3.36,1.29,5.5
	c1.26,1.43,3.26,2.15,4.68,2.14v0.02h10.85v14.98c-0.49-0.38-1.1-0.61-1.77-0.61c-1.62,0-2.93,1.31-2.93,2.93s1.31,2.93,2.93,2.93
	c1.62,0,2.93-1.31,2.93-2.93v-13.94c0.59,0.74,1.34,1.21,2.18,1.25v20.11c-0.5-0.39-1.12-0.63-1.8-0.63c-1.62,0-2.93,1.31-2.93,2.93
	c0,1.62,1.31,2.93,2.93,2.93c1.62,0,2.93-1.31,2.93-2.93v-22.39h3.57v11.76c0,1.62,1.31,2.93,2.93,2.93c1.62,0,2.93-1.31,2.93-2.93
	s-1.31-2.93-2.93-2.93c-0.67,0-1.28,0.23-1.77,0.61v-9.44c0.93-0.01,1.77-0.54,2.39-1.4v6.79h0.01c0,0.02-0.01,0.05-0.01,0.07
	c0,1.62,1.31,2.93,2.93,2.93c1.62,0,2.93-1.31,2.93-2.93c0-1.62-1.31-2.93-2.93-2.93c-0.71,0-1.36,0.26-1.87,0.69V225.7h7.05v-0.02
	c1.43,0.01,3.42-0.71,4.68-2.14C292.47,221.4,291.97,218.51,291.89,218.04z"/>
<rect x="207.7" y="181.74" class="st1" width="128" height="90"/>
<path class="st2" d="M267.95,220.92c0.51,0.49,1.2,1.41,1.05,1.73c-0.15,0.32-1.22,0.05-1.81-0.83c-0.35-0.52-0.57-1.32-0.39-1.53
	C267.03,220.03,267.85,220.82,267.95,220.92z"/>
<path class="st2" d="M276.29,220.92c-0.51,0.49-1.2,1.41-1.05,1.73c0.15,0.32,1.22,0.05,1.81-0.83c0.35-0.52,0.57-1.32,0.39-1.53
	C277.22,220.03,276.4,220.82,276.29,220.92z"/>
</svg>
